<svg width="30" height="30" viewBox="0 0 30 30" fill="none" xmlns="http://www.w3.org/2000/svg">
<path d="M15.0909 28.1818C22.3208 28.1818 28.1818 22.3208 28.1818 15.0909C28.1818 7.861 22.3208 2 15.0909 2C7.861 2 2 7.861 2 15.0909C2 22.3208 7.861 28.1818 15.0909 28.1818Z" stroke="white" stroke-width="2.5"/>
<path d="M17.5472 20.9748C17.4465 20.8742 17.4465 20.673 17.3459 20.4717C17.3459 20.2704 17.2453 20.0692 17.2453 19.8679C17.044 20.0692 16.8428 20.1698 16.6415 20.3711C16.4403 20.5723 16.1384 20.673 15.9371 20.7736C15.6352 20.8742 15.434 20.9748 15.0314 21.0755C14.7296 21.1761 14.327 21.1761 14.0252 21.1761C13.4214 21.1761 12.9182 21.0755 12.4151 20.8742C11.912 20.673 11.5094 20.4717 11.1069 20.1698C10.7044 19.8679 10.5031 19.4654 10.3019 19.0629C10.1006 18.6604 10 18.1572 10 17.6541C10 16.4465 10.5031 15.4403 11.4088 14.8365C12.3145 14.1321 13.7233 13.8302 15.5346 13.8302H17.2453V13.1258C17.2453 12.522 17.044 12.1195 16.7421 11.8176C16.3396 11.5157 15.8365 11.3145 15.1321 11.3145C14.5283 11.3145 14.1258 11.4151 13.8239 11.717C13.522 12.0189 13.4214 12.3208 13.4214 12.7233H10.4025C10.4025 12.2201 10.5031 11.717 10.7044 11.3145C10.9057 10.912 11.2075 10.5094 11.7107 10.1069C12.1132 9.80503 12.6164 9.50314 13.2201 9.30189C13.8239 9.10063 14.5283 9 15.3333 9C16.0377 9 16.6415 9.10063 17.2453 9.30189C17.8491 9.50314 18.3522 9.7044 18.8553 10.1069C19.2579 10.4088 19.6604 10.9119 19.8616 11.4151C20.0629 11.9182 20.2641 12.522 20.2641 13.2264V18.2579C20.2641 18.8616 20.2642 19.3648 20.3648 19.7673C20.4654 20.1698 20.566 20.5723 20.6667 20.7736V20.9748H17.5472ZM14.6289 18.8616C14.9308 18.8616 15.2327 18.8616 15.434 18.761C15.7358 18.6604 15.9371 18.5597 16.1384 18.4591C16.3396 18.3585 16.5409 18.2579 16.6415 18.0566C16.7421 17.956 16.9434 17.7547 17.044 17.6541V15.6415H15.5346C15.0314 15.6415 14.6289 15.6415 14.327 15.7421C14.0252 15.8428 13.7233 15.9434 13.522 16.1447C13.3208 16.3459 13.1195 16.4465 13.0189 16.7484C12.9182 16.9497 12.9182 17.2516 12.9182 17.4528C12.9182 17.8553 13.0189 18.1572 13.3208 18.4591C13.6226 18.761 14.1258 18.8616 14.6289 18.8616Z" fill="white"/>
</svg>
