<svg width="1091" height="287" viewBox="0 0 1091 287" fill="none" xmlns="http://www.w3.org/2000/svg">
<rect x="23" y="66" width="46" height="46" rx="10" transform="rotate(30 23 66)" fill="#1273EA" fill-opacity="0.06"/>
<rect x="130" y="207.094" width="30.4629" height="30.4629" rx="10" transform="rotate(-41.2715 130 207.094)" fill="#1273EA" fill-opacity="0.06"/>
<path d="M296.226 15.0326C298.893 13.493 302.226 15.4175 302.226 18.4967L302.226 43.2437C302.226 46.3229 298.893 48.2474 296.226 46.7078L274.795 34.3343C272.128 32.7947 272.128 28.9457 274.795 27.4061L296.226 15.0326Z" fill="#1273EA" fill-opacity="0.06"/>
<path d="M914.759 89.5388C915.556 86.5645 919.274 85.5683 921.451 87.7456L944.052 110.346C946.229 112.524 945.233 116.241 942.258 117.038L911.385 125.311C908.411 126.108 905.689 123.386 906.486 120.412L914.759 89.5388Z" fill="#1273EA" fill-opacity="0.06"/>
<circle cx="143" cy="63" r="13" fill="#1273EA" fill-opacity="0.06"/>
<circle cx="1078" cy="27" r="13" fill="#1273EA" fill-opacity="0.06"/>
<circle cx="321" cy="145" r="13" fill="#1273EA" fill-opacity="0.06"/>
<path d="M417.842 26.3587C431.917 26.7284 442.018 43.1745 438.397 58.6386" stroke="#1273EA" stroke-opacity="0.06" stroke-width="4"/>
<path d="M49.3847 274.005C39.8673 283.035 22.3762 278.855 14.5731 266.28" stroke="#1273EA" stroke-opacity="0.06" stroke-width="4"/>
<path d="M873.815 175.288C876.555 188.118 863.864 200.86 849.066 200.959" stroke="#1273EA" stroke-opacity="0.06" stroke-width="4"/>
<rect x="746.249" y="13.1552" width="39.4443" height="39.4443" rx="10" transform="rotate(-15 746.249 13.1552)" fill="#1273EA" fill-opacity="0.06"/>
<rect x="997.894" y="185.451" width="23.1654" height="23.1654" rx="6" transform="rotate(30 997.894 185.451)" fill="#1273EA" fill-opacity="0.06"/>
</svg>
