<svg width="157" height="97" viewBox="0 0 157 97" fill="#000000" xmlns="http://www.w3.org/2000/svg">
<path d="M60.7336 3.22665C33.7498 13.5788 31.278 40.0907 23.5406 52.4724C15.7116 65.0011 -2.22427 71.9139 0.228416 78.2986C2.6811 84.6832 20.6383 77.8258 34.8451 81.8998C48.8836 85.9248 68.471 103.976 95.4548 93.6234C109.201 88.3505 119.155 77.4957 123.732 64.6391C124.224 63.2591 123.304 61.7832 121.844 61.6469C120.936 61.5617 120.065 62.0366 119.656 62.8502C115.515 71.0919 108.413 77.879 99.1178 81.444C83.7731 87.3304 66.9836 82.709 56.6721 71.1174C54.3302 68.4852 52.3272 65.4888 50.746 62.1772C50.3113 61.2657 49.8979 60.3393 49.5314 59.381C49.1628 58.4226 48.8495 57.4579 48.5618 56.4889C56.6721 52.7109 66.0311 48.7094 76.6409 44.6396C87.044 40.6487 96.5117 37.4116 104.942 34.822C110.644 33.0714 115.871 31.6147 120.591 30.4243C120.932 30.3391 121.269 30.2539 121.603 30.1708C122.317 29.9941 123.05 30.3753 123.314 31.061L123.319 31.0738C123.474 31.4806 123.608 31.8895 123.753 32.2984C124.687 34.937 125.386 37.6033 125.848 40.276C126.05 41.4452 127.329 42.0819 128.377 41.5197C132.251 39.4412 135.795 37.4137 138.962 35.463C150.761 28.2009 157.302 22.042 155.96 18.5515C154.62 15.0589 145.636 14.8587 132.004 17.3504C127.672 18.1426 122.869 19.2075 117.693 20.5257C116.798 20.7536 115.892 20.99 114.976 21.2327C110.62 22.387 106.026 23.7095 101.242 25.1896C92.3457 27.9432 82.8014 31.2421 72.948 35.0222C63.7297 38.5595 54.9929 42.2267 46.9807 45.8812C46.8827 30.371 56.2651 15.7085 71.6098 9.82214C80.9027 6.25712 90.7262 6.54888 99.3223 9.90733C100.17 10.2395 101.136 10.0095 101.756 9.33871C102.749 8.26324 102.444 6.55101 101.155 5.85249C89.1451 -0.63652 74.4801 -2.04634 60.7336 3.22665Z" fill="#000000"/>
</svg>
