<svg width="350" height="170" viewBox="0 0 350 170" fill="none" xmlns="http://www.w3.org/2000/svg">
<rect x="35" y="30" width="122" height="26" rx="6" fill="#1273EA" fill-opacity="0.1"/>
<path d="M48.0309 47.5V40.9545H49.5053V42.0668H49.582C49.7184 41.6918 49.9442 41.3991 50.2596 41.1889C50.5749 40.9759 50.9513 40.8693 51.3888 40.8693C51.832 40.8693 52.2056 40.9773 52.5096 41.1932C52.8164 41.4062 53.0323 41.6974 53.1573 42.0668H53.2255C53.3704 41.7031 53.6147 41.4134 53.9585 41.1974C54.305 40.9787 54.7156 40.8693 55.19 40.8693C55.7923 40.8693 56.2837 41.0597 56.6644 41.4403C57.0451 41.821 57.2354 42.3764 57.2354 43.1065V47.5H55.6886V43.3452C55.6886 42.9389 55.5806 42.642 55.3647 42.4545C55.1488 42.2642 54.8846 42.169 54.5721 42.169C54.1999 42.169 53.9087 42.2855 53.6985 42.5185C53.4911 42.7486 53.3874 43.0483 53.3874 43.4176V47.5H51.8746V43.2812C51.8746 42.9432 51.7724 42.6733 51.5678 42.4716C51.3661 42.2699 51.1019 42.169 50.7752 42.169C50.5536 42.169 50.3519 42.2259 50.1701 42.3395C49.9883 42.4503 49.8434 42.608 49.7354 42.8125C49.6275 43.0142 49.5735 43.25 49.5735 43.5199V47.5H48.0309ZM60.6839 47.6321C60.2692 47.6321 59.8956 47.5582 59.5632 47.4105C59.2337 47.2599 58.9723 47.0384 58.7791 46.7457C58.5888 46.4531 58.4936 46.0923 58.4936 45.6634C58.4936 45.294 58.5618 44.9886 58.6982 44.7472C58.8345 44.5057 59.0206 44.3125 59.2564 44.1676C59.4922 44.0227 59.7578 43.9134 60.0533 43.8395C60.3516 43.7628 60.6598 43.7074 60.978 43.6733C61.3615 43.6335 61.6726 43.598 61.9112 43.5668C62.1499 43.5327 62.3232 43.4815 62.4311 43.4134C62.5419 43.3423 62.5973 43.233 62.5973 43.0852V43.0597C62.5973 42.7386 62.5021 42.4901 62.3118 42.3139C62.1214 42.1378 61.8473 42.0497 61.4893 42.0497C61.1115 42.0497 60.8118 42.1321 60.5902 42.2969C60.3714 42.4616 60.2237 42.6562 60.147 42.8807L58.7067 42.6761C58.8203 42.2784 59.0078 41.946 59.2692 41.679C59.5305 41.4091 59.8501 41.2074 60.228 41.0739C60.6058 40.9375 61.0234 40.8693 61.4808 40.8693C61.7962 40.8693 62.1101 40.9062 62.4226 40.9801C62.7351 41.054 63.0206 41.1761 63.2791 41.3466C63.5376 41.5142 63.745 41.7429 63.9013 42.0327C64.0604 42.3224 64.1399 42.6847 64.1399 43.1193V47.5H62.657V46.6009H62.6058C62.5121 46.7827 62.38 46.9531 62.2095 47.1122C62.0419 47.2685 61.8303 47.3949 61.5746 47.4915C61.3217 47.5852 61.0249 47.6321 60.6839 47.6321ZM61.0845 46.4986C61.3942 46.4986 61.6626 46.4375 61.8899 46.3153C62.1172 46.1903 62.2919 46.0256 62.4141 45.821C62.5391 45.6165 62.6016 45.3935 62.6016 45.152V44.3807C62.5533 44.4205 62.4709 44.4574 62.3544 44.4915C62.2408 44.5256 62.1129 44.5554 61.9709 44.581C61.8288 44.6065 61.6882 44.6293 61.549 44.6491C61.4098 44.669 61.2891 44.6861 61.1868 44.7003C60.9567 44.7315 60.7507 44.7827 60.5689 44.8537C60.3871 44.9247 60.2436 45.0241 60.1385 45.152C60.0334 45.277 59.9808 45.4389 59.9808 45.6378C59.9808 45.9219 60.0845 46.1364 60.2919 46.2812C60.4993 46.4261 60.7635 46.4986 61.0845 46.4986ZM65.6911 47.5V40.9545H67.1868V42.0455H67.255C67.3743 41.6676 67.5788 41.3764 67.8686 41.1719C68.1612 40.9645 68.495 40.8608 68.87 40.8608C68.9553 40.8608 69.0504 40.8651 69.1555 40.8736C69.2635 40.8793 69.353 40.8892 69.424 40.9034V42.3224C69.3587 42.2997 69.255 42.2798 69.1129 42.2628C68.9737 42.2429 68.8388 42.233 68.7081 42.233C68.4268 42.233 68.174 42.294 67.9496 42.4162C67.728 42.5355 67.5533 42.7017 67.4254 42.9148C67.2976 43.1278 67.2337 43.3736 67.2337 43.652V47.5H65.6911ZM74.0689 40.9545V42.1477H70.3061V40.9545H74.0689ZM71.2351 39.3864H72.7777V45.5312C72.7777 45.7386 72.8089 45.8977 72.8714 46.0085C72.9368 46.1165 73.022 46.1903 73.1271 46.2301C73.2322 46.2699 73.3487 46.2898 73.4766 46.2898C73.5732 46.2898 73.6612 46.2827 73.7408 46.2685C73.8232 46.2543 73.8857 46.2415 73.9283 46.2301L74.1882 47.4361C74.1058 47.4645 73.9879 47.4957 73.8345 47.5298C73.6839 47.5639 73.4993 47.5838 73.2805 47.5895C72.8942 47.6009 72.5462 47.5426 72.2365 47.4148C71.9268 47.2841 71.6811 47.0824 71.4993 46.8097C71.3203 46.5369 71.2322 46.196 71.2351 45.7869V39.3864ZM78.1438 47.6278C77.5046 47.6278 76.9506 47.4872 76.4819 47.206C76.0131 46.9247 75.6495 46.5312 75.391 46.0256C75.1353 45.5199 75.0075 44.929 75.0075 44.2528C75.0075 43.5767 75.1353 42.9844 75.391 42.4759C75.6495 41.9673 76.0131 41.5724 76.4819 41.2912C76.9506 41.0099 77.5046 40.8693 78.1438 40.8693C78.783 40.8693 79.337 41.0099 79.8058 41.2912C80.2745 41.5724 80.6367 41.9673 80.8924 42.4759C81.1509 42.9844 81.2802 43.5767 81.2802 44.2528C81.2802 44.929 81.1509 45.5199 80.8924 46.0256C80.6367 46.5312 80.2745 46.9247 79.8058 47.206C79.337 47.4872 78.783 47.6278 78.1438 47.6278ZM78.1523 46.392C78.4989 46.392 78.7887 46.2969 79.0217 46.1065C79.2546 45.9134 79.4279 45.6548 79.5415 45.331C79.658 45.0071 79.7163 44.6463 79.7163 44.2486C79.7163 43.848 79.658 43.4858 79.5415 43.1619C79.4279 42.8352 79.2546 42.5753 79.0217 42.3821C78.7887 42.1889 78.4989 42.0923 78.1523 42.0923C77.7972 42.0923 77.5018 42.1889 77.266 42.3821C77.033 42.5753 76.8583 42.8352 76.7418 43.1619C76.6282 43.4858 76.5714 43.848 76.5714 44.2486C76.5714 44.6463 76.6282 45.0071 76.7418 45.331C76.8583 45.6548 77.033 45.9134 77.266 46.1065C77.5018 46.2969 77.7972 46.392 78.1523 46.392ZM84.1321 43.6648V47.5H82.5895V40.9545H84.0639V42.0668H84.1406C84.2912 41.7003 84.5313 41.4091 84.8608 41.1932C85.1932 40.9773 85.6037 40.8693 86.0923 40.8693C86.544 40.8693 86.9375 40.9659 87.2727 41.1591C87.6108 41.3523 87.8722 41.6321 88.0568 41.9986C88.2443 42.3651 88.3366 42.8097 88.3338 43.3324V47.5H86.7912V43.571C86.7912 43.1335 86.6776 42.7912 86.4503 42.544C86.2259 42.2969 85.9148 42.1733 85.517 42.1733C85.2472 42.1733 85.0071 42.233 84.7969 42.3523C84.5895 42.4687 84.4261 42.6378 84.3068 42.8594C84.1903 43.081 84.1321 43.3494 84.1321 43.6648ZM91.4446 38.7727V47.5H89.902V38.7727H91.4446ZM95.9286 47.6278C95.2724 47.6278 94.7056 47.4915 94.2283 47.2188C93.7539 46.9432 93.3888 46.554 93.1332 46.0511C92.8775 45.5455 92.7496 44.9503 92.7496 44.2656C92.7496 43.5923 92.8775 43.0014 93.1332 42.4929C93.3917 41.9815 93.7525 41.5838 94.2156 41.2997C94.6786 41.0128 95.2227 40.8693 95.8477 40.8693C96.2511 40.8693 96.6317 40.9347 96.9897 41.0653C97.3505 41.1932 97.6687 41.392 97.9442 41.6619C98.2227 41.9318 98.4414 42.2756 98.6005 42.6932C98.7596 43.108 98.8391 43.6023 98.8391 44.1761V44.6491H93.4741V43.6094H97.3604C97.3576 43.3139 97.2937 43.0511 97.1687 42.821C97.0437 42.5881 96.869 42.4048 96.6445 42.2713C96.4229 42.1378 96.1644 42.071 95.869 42.071C95.5536 42.071 95.2766 42.1477 95.038 42.3011C94.7994 42.4517 94.6133 42.6506 94.4798 42.8977C94.3491 43.142 94.2823 43.4105 94.2795 43.7031V44.6108C94.2795 44.9915 94.3491 45.3182 94.4883 45.5909C94.6275 45.8608 94.8221 46.0682 95.0721 46.2131C95.3221 46.3551 95.6147 46.4261 95.9499 46.4261C96.1744 46.4261 96.3775 46.3949 96.5593 46.3324C96.7411 46.267 96.8988 46.1719 97.0323 46.0469C97.1658 45.9219 97.2667 45.767 97.3349 45.5824L98.7752 45.7443C98.6843 46.125 98.511 46.4574 98.2553 46.7415C98.0025 47.0227 97.6786 47.2415 97.2837 47.3977C96.8888 47.5511 96.4371 47.6278 95.9286 47.6278ZM102.573 47.6151C102.059 47.6151 101.599 47.483 101.192 47.2188C100.786 46.9545 100.465 46.571 100.229 46.0682C99.9936 45.5653 99.8757 44.9545 99.8757 44.2358C99.8757 43.5085 99.995 42.8949 100.234 42.3949C100.475 41.892 100.8 41.5128 101.21 41.2571C101.619 40.9986 102.075 40.8693 102.577 40.8693C102.961 40.8693 103.276 40.9347 103.523 41.0653C103.771 41.1932 103.967 41.348 104.112 41.5298C104.256 41.7088 104.369 41.8778 104.448 42.0369H104.512V38.7727H106.059V47.5H104.542V46.4688H104.448C104.369 46.6278 104.254 46.7969 104.103 46.9759C103.952 47.152 103.754 47.3026 103.506 47.4276C103.259 47.5526 102.948 47.6151 102.573 47.6151ZM103.004 46.3494C103.33 46.3494 103.609 46.2614 103.839 46.0852C104.069 45.9062 104.244 45.6577 104.363 45.3395C104.482 45.0213 104.542 44.6506 104.542 44.2273C104.542 43.804 104.482 43.4361 104.363 43.1236C104.246 42.8111 104.073 42.5682 103.843 42.3949C103.616 42.2216 103.336 42.1349 103.004 42.1349C102.66 42.1349 102.373 42.2244 102.143 42.4034C101.913 42.5824 101.739 42.8295 101.623 43.1449C101.506 43.4602 101.448 43.821 101.448 44.2273C101.448 44.6364 101.506 45.0014 101.623 45.3224C101.742 45.6406 101.917 45.892 102.147 46.0767C102.38 46.2585 102.665 46.3494 103.004 46.3494ZM110.6 47.6278C109.944 47.6278 109.377 47.4915 108.9 47.2188C108.426 46.9432 108.061 46.554 107.805 46.0511C107.549 45.5455 107.422 44.9503 107.422 44.2656C107.422 43.5923 107.549 43.0014 107.805 42.4929C108.064 41.9815 108.424 41.5838 108.887 41.2997C109.35 41.0128 109.895 40.8693 110.52 40.8693C110.923 40.8693 111.304 40.9347 111.662 41.0653C112.022 41.1932 112.341 41.392 112.616 41.6619C112.895 41.9318 113.113 42.2756 113.272 42.6932C113.431 43.108 113.511 43.6023 113.511 44.1761V44.6491H108.146V43.6094H112.032C112.029 43.3139 111.966 43.0511 111.841 42.821C111.716 42.5881 111.541 42.4048 111.316 42.2713C111.095 42.1378 110.836 42.071 110.541 42.071C110.225 42.071 109.949 42.1477 109.71 42.3011C109.471 42.4517 109.285 42.6506 109.152 42.8977C109.021 43.142 108.954 43.4105 108.951 43.7031V44.6108C108.951 44.9915 109.021 45.3182 109.16 45.5909C109.299 45.8608 109.494 46.0682 109.744 46.2131C109.994 46.3551 110.287 46.4261 110.622 46.4261C110.846 46.4261 111.049 46.3949 111.231 46.3324C111.413 46.267 111.571 46.1719 111.704 46.0469C111.838 45.9219 111.939 45.767 112.007 45.5824L113.447 45.7443C113.356 46.125 113.183 46.4574 112.927 46.7415C112.674 47.0227 112.35 47.2415 111.956 47.3977C111.561 47.5511 111.109 47.6278 110.6 47.6278ZM114.816 47.5V40.9545H116.312V42.0455H116.38C116.499 41.6676 116.704 41.3764 116.994 41.1719C117.286 40.9645 117.62 40.8608 117.995 40.8608C118.08 40.8608 118.175 40.8651 118.281 40.8736C118.388 40.8793 118.478 40.8892 118.549 40.9034V42.3224C118.484 42.2997 118.38 42.2798 118.238 42.2628C118.099 42.2429 117.964 42.233 117.833 42.233C117.552 42.233 117.299 42.294 117.075 42.4162C116.853 42.5355 116.678 42.7017 116.55 42.9148C116.423 43.1278 116.359 43.3736 116.359 43.652V47.5H114.816ZM122.202 47.6278C121.546 47.6278 120.979 47.4915 120.502 47.2188C120.027 46.9432 119.662 46.554 119.407 46.0511C119.151 45.5455 119.023 44.9503 119.023 44.2656C119.023 43.5923 119.151 43.0014 119.407 42.4929C119.665 41.9815 120.026 41.5838 120.489 41.2997C120.952 41.0128 121.496 40.8693 122.121 40.8693C122.525 40.8693 122.905 40.9347 123.263 41.0653C123.624 41.1932 123.942 41.392 124.218 41.6619C124.496 41.9318 124.715 42.2756 124.874 42.6932C125.033 43.108 125.113 43.6023 125.113 44.1761V44.6491H119.748V43.6094H123.634C123.631 43.3139 123.567 43.0511 123.442 42.821C123.317 42.5881 123.142 42.4048 122.918 42.2713C122.696 42.1378 122.438 42.071 122.142 42.071C121.827 42.071 121.55 42.1477 121.311 42.3011C121.073 42.4517 120.887 42.6506 120.753 42.8977C120.623 43.142 120.556 43.4105 120.553 43.7031V44.6108C120.553 44.9915 120.623 45.3182 120.762 45.5909C120.901 45.8608 121.096 46.0682 121.346 46.2131C121.596 46.3551 121.888 46.4261 122.223 46.4261C122.448 46.4261 122.651 46.3949 122.833 46.3324C123.015 46.267 123.172 46.1719 123.306 46.0469C123.439 45.9219 123.54 45.767 123.608 45.5824L125.049 45.7443C124.958 46.125 124.784 46.4574 124.529 46.7415C124.276 47.0227 123.952 47.2415 123.557 47.3977C123.162 47.5511 122.711 47.6278 122.202 47.6278ZM126.418 47.5V40.9545H127.913V42.0455H127.982C128.101 41.6676 128.305 41.3764 128.595 41.1719C128.888 40.9645 129.222 40.8608 129.597 40.8608C129.682 40.8608 129.777 40.8651 129.882 40.8736C129.99 40.8793 130.08 40.8892 130.151 40.9034V42.3224C130.085 42.2997 129.982 42.2798 129.839 42.2628C129.7 42.2429 129.565 42.233 129.435 42.233C129.153 42.233 128.901 42.294 128.676 42.4162C128.455 42.5355 128.28 42.7017 128.152 42.9148C128.024 43.1278 127.96 43.3736 127.96 43.652V47.5H126.418ZM131.376 47.5938C131.117 47.5938 130.896 47.5028 130.711 47.321C130.526 47.1392 130.435 46.9176 130.438 46.6562C130.435 46.4006 130.526 46.1818 130.711 46C130.896 45.8182 131.117 45.7273 131.376 45.7273C131.626 45.7273 131.843 45.8182 132.028 46C132.215 46.1818 132.31 46.4006 132.313 46.6562C132.31 46.8295 132.265 46.9872 132.177 47.1293C132.092 47.2713 131.978 47.3849 131.836 47.4702C131.697 47.5526 131.543 47.5938 131.376 47.5938ZM135.789 47.6321C135.375 47.6321 135.001 47.5582 134.669 47.4105C134.339 47.2599 134.078 47.0384 133.885 46.7457C133.694 46.4531 133.599 46.0923 133.599 45.6634C133.599 45.294 133.667 44.9886 133.804 44.7472C133.94 44.5057 134.126 44.3125 134.362 44.1676C134.598 44.0227 134.863 43.9134 135.159 43.8395C135.457 43.7628 135.765 43.7074 136.083 43.6733C136.467 43.6335 136.778 43.598 137.017 43.5668C137.255 43.5327 137.429 43.4815 137.537 43.4134C137.647 43.3423 137.703 43.233 137.703 43.0852V43.0597C137.703 42.7386 137.608 42.4901 137.417 42.3139C137.227 42.1378 136.953 42.0497 136.595 42.0497C136.217 42.0497 135.917 42.1321 135.696 42.2969C135.477 42.4616 135.329 42.6562 135.252 42.8807L133.812 42.6761C133.926 42.2784 134.113 41.946 134.375 41.679C134.636 41.4091 134.956 41.2074 135.333 41.0739C135.711 40.9375 136.129 40.8693 136.586 40.8693C136.902 40.8693 137.216 40.9062 137.528 40.9801C137.841 41.054 138.126 41.1761 138.385 41.3466C138.643 41.5142 138.85 41.7429 139.007 42.0327C139.166 42.3224 139.245 42.6847 139.245 43.1193V47.5H137.762V46.6009H137.711C137.618 46.7827 137.485 46.9531 137.315 47.1122C137.147 47.2685 136.936 47.3949 136.68 47.4915C136.427 47.5852 136.13 47.6321 135.789 47.6321ZM136.19 46.4986C136.5 46.4986 136.768 46.4375 136.995 46.3153C137.223 46.1903 137.397 46.0256 137.52 45.821C137.645 45.6165 137.707 45.3935 137.707 45.152V44.3807C137.659 44.4205 137.576 44.4574 137.46 44.4915C137.346 44.5256 137.218 44.5554 137.076 44.581C136.934 44.6065 136.794 44.6293 136.654 44.6491C136.515 44.669 136.395 44.6861 136.292 44.7003C136.062 44.7315 135.856 44.7827 135.674 44.8537C135.493 44.9247 135.349 45.0241 135.244 45.152C135.139 45.277 135.086 45.4389 135.086 45.6378C135.086 45.9219 135.19 46.1364 135.397 46.2812C135.605 46.4261 135.869 46.4986 136.19 46.4986ZM140.797 47.5V40.9545H142.292V42.0455H142.36C142.48 41.6676 142.684 41.3764 142.974 41.1719C143.267 40.9645 143.6 40.8608 143.975 40.8608C144.061 40.8608 144.156 40.8651 144.261 40.8736C144.369 40.8793 144.458 40.8892 144.529 40.9034V42.3224C144.464 42.2997 144.36 42.2798 144.218 42.2628C144.079 42.2429 143.944 42.233 143.814 42.233C143.532 42.233 143.279 42.294 143.055 42.4162C142.833 42.5355 142.659 42.7017 142.531 42.9148C142.403 43.1278 142.339 43.3736 142.339 43.652V47.5H140.797Z" fill="#1273EA"/>
<rect x="35" y="72" width="67" height="26" rx="6" fill="#1273EA" fill-opacity="0.1"/>
<path d="M47.8532 89.5V82.9545H49.3276V84.0668H49.4043C49.5407 83.6918 49.7665 83.3991 50.0819 83.1889C50.3972 82.9759 50.7736 82.8693 51.2111 82.8693C51.6543 82.8693 52.0279 82.9773 52.3319 83.1932C52.6387 83.4062 52.8546 83.6974 52.9796 84.0668H53.0478C53.1926 83.7031 53.437 83.4134 53.7807 83.1974C54.1273 82.9787 54.5378 82.8693 55.0123 82.8693C55.6145 82.8693 56.106 83.0597 56.4867 83.4403C56.8674 83.821 57.0577 84.3764 57.0577 85.1065V89.5H55.5108V85.3452C55.5108 84.9389 55.4029 84.642 55.187 84.4545C54.9711 84.2642 54.7069 84.169 54.3944 84.169C54.0222 84.169 53.731 84.2855 53.5208 84.5185C53.3134 84.7486 53.2097 85.0483 53.2097 85.4176V89.5H51.6969V85.2812C51.6969 84.9432 51.5946 84.6733 51.3901 84.4716C51.1884 84.2699 50.9242 84.169 50.5975 84.169C50.3759 84.169 50.1742 84.2259 49.9924 84.3395C49.8105 84.4503 49.6657 84.608 49.5577 84.8125C49.4498 85.0142 49.3958 85.25 49.3958 85.5199V89.5H47.8532ZM58.6227 89.5V82.9545H60.1184V84.0455H60.1866C60.3059 83.6676 60.5105 83.3764 60.8002 83.1719C61.0929 82.9645 61.4267 82.8608 61.8017 82.8608C61.8869 82.8608 61.9821 82.8651 62.0872 82.8736C62.1951 82.8793 62.2846 82.8892 62.3556 82.9034V84.3224C62.2903 84.2997 62.1866 84.2798 62.0446 84.2628C61.9054 84.2429 61.7704 84.233 61.6397 84.233C61.3585 84.233 61.1056 84.294 60.8812 84.4162C60.6596 84.5355 60.4849 84.7017 60.3571 84.9148C60.2292 85.1278 60.1653 85.3736 60.1653 85.652V89.5H58.6227ZM67.0005 82.9545V84.1477H63.2377V82.9545H67.0005ZM64.1667 81.3864H65.7093V87.5312C65.7093 87.7386 65.7406 87.8977 65.8031 88.0085C65.8684 88.1165 65.9537 88.1903 66.0588 88.2301C66.1639 88.2699 66.2804 88.2898 66.4082 88.2898C66.5048 88.2898 66.5929 88.2827 66.6724 88.2685C66.7548 88.2543 66.8173 88.2415 66.8599 88.2301L67.1199 89.4361C67.0375 89.4645 66.9196 89.4957 66.7662 89.5298C66.6156 89.5639 66.4309 89.5838 66.2122 89.5895C65.8258 89.6009 65.4778 89.5426 65.1681 89.4148C64.8585 89.2841 64.6127 89.0824 64.4309 88.8097C64.252 88.5369 64.1639 88.196 64.1667 87.7869V81.3864ZM69.8333 85.6648V89.5H68.2907V82.9545H69.7651V84.0668H69.8418C69.9924 83.7003 70.2324 83.4091 70.562 83.1932C70.8944 82.9773 71.3049 82.8693 71.7935 82.8693C72.2452 82.8693 72.6387 82.9659 72.9739 83.1591C73.312 83.3523 73.5733 83.6321 73.758 83.9986C73.9455 84.3651 74.0378 84.8097 74.035 85.3324V89.5H72.4924V85.571C72.4924 85.1335 72.3787 84.7912 72.1515 84.544C71.927 84.2969 71.6159 84.1733 71.2182 84.1733C70.9483 84.1733 70.7083 84.233 70.498 84.3523C70.2907 84.4687 70.1273 84.6378 70.008 84.8594C69.8915 85.081 69.8333 85.3494 69.8333 85.6648ZM76.5534 89.5938C76.2949 89.5938 76.0733 89.5028 75.8887 89.321C75.704 89.1392 75.6131 88.9176 75.6159 88.6562C75.6131 88.4006 75.704 88.1818 75.8887 88C76.0733 87.8182 76.2949 87.7273 76.5534 87.7273C76.8034 87.7273 77.0208 87.8182 77.2054 88C77.3929 88.1818 77.4881 88.4006 77.4909 88.6562C77.4881 88.8295 77.4426 88.9872 77.3546 89.1293C77.2694 89.2713 77.1557 89.3849 77.0137 89.4702C76.8745 89.5526 76.7211 89.5938 76.5534 89.5938ZM80.9672 89.6321C80.5524 89.6321 80.1788 89.5582 79.8464 89.4105C79.5169 89.2599 79.2555 89.0384 79.0623 88.7457C78.872 88.4531 78.7768 88.0923 78.7768 87.6634C78.7768 87.294 78.845 86.9886 78.9814 86.7472C79.1177 86.5057 79.3038 86.3125 79.5396 86.1676C79.7754 86.0227 80.041 85.9134 80.3365 85.8395C80.6348 85.7628 80.943 85.7074 81.2612 85.6733C81.6447 85.6335 81.9558 85.598 82.1944 85.5668C82.4331 85.5327 82.6064 85.4815 82.7143 85.4134C82.8251 85.3423 82.8805 85.233 82.8805 85.0852V85.0597C82.8805 84.7386 82.7853 84.4901 82.595 84.3139C82.4047 84.1378 82.1305 84.0497 81.7725 84.0497C81.3947 84.0497 81.095 84.1321 80.8734 84.2969C80.6547 84.4616 80.5069 84.6562 80.4302 84.8807L78.9899 84.6761C79.1035 84.2784 79.291 83.946 79.5524 83.679C79.8137 83.4091 80.1333 83.2074 80.5112 83.0739C80.889 82.9375 81.3066 82.8693 81.764 82.8693C82.0794 82.8693 82.3933 82.9062 82.7058 82.9801C83.0183 83.054 83.3038 83.1761 83.5623 83.3466C83.8208 83.5142 84.0282 83.7429 84.1845 84.0327C84.3436 84.3224 84.4231 84.6847 84.4231 85.1193V89.5H82.9402V88.6009H82.889C82.7953 88.7827 82.6632 88.9531 82.4927 89.1122C82.3251 89.2685 82.1135 89.3949 81.8578 89.4915C81.6049 89.5852 81.3081 89.6321 80.9672 89.6321ZM81.3677 88.4986C81.6774 88.4986 81.9458 88.4375 82.1731 88.3153C82.4004 88.1903 82.5751 88.0256 82.6973 87.821C82.8223 87.6165 82.8848 87.3935 82.8848 87.152V86.3807C82.8365 86.4205 82.7541 86.4574 82.6376 86.4915C82.524 86.5256 82.3961 86.5554 82.2541 86.581C82.112 86.6065 81.9714 86.6293 81.8322 86.6491C81.693 86.669 81.5723 86.6861 81.47 86.7003C81.2399 86.7315 81.0339 86.7827 80.8521 86.8537C80.6703 86.9247 80.5268 87.0241 80.4217 87.152C80.3166 87.277 80.264 87.4389 80.264 87.6378C80.264 87.9219 80.3677 88.1364 80.5751 88.2812C80.7825 88.4261 81.0467 88.4986 81.3677 88.4986ZM85.9743 89.5V82.9545H87.47V84.0455H87.5382C87.6575 83.6676 87.862 83.3764 88.1518 83.1719C88.4444 82.9645 88.7782 82.8608 89.1532 82.8608C89.2385 82.8608 89.3336 82.8651 89.4387 82.8736C89.5467 82.8793 89.6362 82.8892 89.7072 82.9034V84.3224C89.6419 84.2997 89.5382 84.2798 89.3961 84.2628C89.2569 84.2429 89.122 84.233 88.9913 84.233C88.71 84.233 88.4572 84.294 88.2328 84.4162C88.0112 84.5355 87.8365 84.7017 87.7086 84.9148C87.5808 85.1278 87.5169 85.3736 87.5169 85.652V89.5H85.9743Z" fill="#1273EA"/>
<rect x="35" y="114" width="81" height="26" rx="6" fill="#1273EA" fill-opacity="0.1"/>
<path d="M47.7926 131.5V124.955H49.267V126.067H49.3438C49.4801 125.692 49.706 125.399 50.0213 125.189C50.3366 124.976 50.7131 124.869 51.1506 124.869C51.5938 124.869 51.9673 124.977 52.2713 125.193C52.5781 125.406 52.794 125.697 52.919 126.067H52.9872C53.1321 125.703 53.3764 125.413 53.7202 125.197C54.0668 124.979 54.4773 124.869 54.9517 124.869C55.554 124.869 56.0455 125.06 56.4261 125.44C56.8068 125.821 56.9972 126.376 56.9972 127.107V131.5H55.4503V127.345C55.4503 126.939 55.3423 126.642 55.1264 126.455C54.9105 126.264 54.6463 126.169 54.3338 126.169C53.9616 126.169 53.6705 126.286 53.4602 126.518C53.2528 126.749 53.1491 127.048 53.1491 127.418V131.5H51.6364V127.281C51.6364 126.943 51.5341 126.673 51.3295 126.472C51.1278 126.27 50.8636 126.169 50.5369 126.169C50.3153 126.169 50.1136 126.226 49.9318 126.339C49.75 126.45 49.6051 126.608 49.4972 126.812C49.3892 127.014 49.3352 127.25 49.3352 127.52V131.5H47.7926ZM60.4457 131.632C60.0309 131.632 59.6573 131.558 59.3249 131.411C58.9954 131.26 58.734 131.038 58.5408 130.746C58.3505 130.453 58.2553 130.092 58.2553 129.663C58.2553 129.294 58.3235 128.989 58.4599 128.747C58.5962 128.506 58.7823 128.312 59.0181 128.168C59.2539 128.023 59.5195 127.913 59.815 127.839C60.1133 127.763 60.4215 127.707 60.7397 127.673C61.1232 127.634 61.4343 127.598 61.6729 127.567C61.9116 127.533 62.0849 127.482 62.1928 127.413C62.3036 127.342 62.359 127.233 62.359 127.085V127.06C62.359 126.739 62.2638 126.49 62.0735 126.314C61.8832 126.138 61.609 126.05 61.2511 126.05C60.8732 126.05 60.5735 126.132 60.3519 126.297C60.1332 126.462 59.9854 126.656 59.9087 126.881L58.4684 126.676C58.582 126.278 58.7695 125.946 59.0309 125.679C59.2923 125.409 59.6119 125.207 59.9897 125.074C60.3675 124.938 60.7852 124.869 61.2425 124.869C61.5579 124.869 61.8718 124.906 62.1843 124.98C62.4968 125.054 62.7823 125.176 63.0408 125.347C63.2994 125.514 63.5067 125.743 63.663 126.033C63.8221 126.322 63.9016 126.685 63.9016 127.119V131.5H62.4187V130.601H62.3675C62.2738 130.783 62.1417 130.953 61.9712 131.112C61.8036 131.268 61.592 131.395 61.3363 131.491C61.0835 131.585 60.7866 131.632 60.4457 131.632ZM60.8462 130.499C61.1559 130.499 61.4244 130.437 61.6516 130.315C61.8789 130.19 62.0536 130.026 62.1758 129.821C62.3008 129.616 62.3633 129.393 62.3633 129.152V128.381C62.315 128.42 62.2326 128.457 62.1161 128.491C62.0025 128.526 61.8746 128.555 61.7326 128.581C61.5906 128.607 61.4499 128.629 61.3107 128.649C61.1715 128.669 61.0508 128.686 60.9485 128.7C60.7184 128.732 60.5124 128.783 60.3306 128.854C60.1488 128.925 60.0053 129.024 59.9002 129.152C59.7951 129.277 59.7425 129.439 59.7425 129.638C59.7425 129.922 59.8462 130.136 60.0536 130.281C60.261 130.426 60.5252 130.499 60.8462 130.499ZM65.4528 131.5V124.955H66.9485V126.045H67.0167C67.136 125.668 67.3406 125.376 67.6303 125.172C67.9229 124.964 68.2567 124.861 68.6317 124.861C68.717 124.861 68.8121 124.865 68.9173 124.874C69.0252 124.879 69.1147 124.889 69.1857 124.903V126.322C69.1204 126.3 69.0167 126.28 68.8746 126.263C68.7354 126.243 68.6005 126.233 68.4698 126.233C68.1886 126.233 67.9357 126.294 67.7113 126.416C67.4897 126.536 67.315 126.702 67.1871 126.915C67.0593 127.128 66.9954 127.374 66.9954 127.652V131.5H65.4528ZM73.8306 124.955V126.148H70.0678V124.955H73.8306ZM70.9968 123.386H72.5394V129.531C72.5394 129.739 72.5707 129.898 72.6332 130.009C72.6985 130.116 72.7837 130.19 72.8888 130.23C72.994 130.27 73.1104 130.29 73.2383 130.29C73.3349 130.29 73.4229 130.283 73.5025 130.268C73.5849 130.254 73.6474 130.241 73.69 130.23L73.9499 131.436C73.8675 131.464 73.7496 131.496 73.5962 131.53C73.4457 131.564 73.261 131.584 73.0423 131.589C72.6559 131.601 72.3079 131.543 71.9982 131.415C71.6886 131.284 71.4428 131.082 71.261 130.81C71.082 130.537 70.994 130.196 70.9968 129.787V123.386ZM77.9055 131.628C77.2663 131.628 76.7124 131.487 76.2436 131.206C75.7749 130.925 75.4112 130.531 75.1527 130.026C74.897 129.52 74.7692 128.929 74.7692 128.253C74.7692 127.577 74.897 126.984 75.1527 126.476C75.4112 125.967 75.7749 125.572 76.2436 125.291C76.7124 125.01 77.2663 124.869 77.9055 124.869C78.5447 124.869 79.0987 125.01 79.5675 125.291C80.0362 125.572 80.3984 125.967 80.6541 126.476C80.9126 126.984 81.0419 127.577 81.0419 128.253C81.0419 128.929 80.9126 129.52 80.6541 130.026C80.3984 130.531 80.0362 130.925 79.5675 131.206C79.0987 131.487 78.5447 131.628 77.9055 131.628ZM77.9141 130.392C78.2607 130.392 78.5504 130.297 78.7834 130.107C79.0163 129.913 79.1896 129.655 79.3033 129.331C79.4197 129.007 79.478 128.646 79.478 128.249C79.478 127.848 79.4197 127.486 79.3033 127.162C79.1896 126.835 79.0163 126.575 78.7834 126.382C78.5504 126.189 78.2607 126.092 77.9141 126.092C77.5589 126.092 77.2635 126.189 77.0277 126.382C76.7947 126.575 76.62 126.835 76.5036 127.162C76.3899 127.486 76.3331 127.848 76.3331 128.249C76.3331 128.646 76.3899 129.007 76.5036 129.331C76.62 129.655 76.7947 129.913 77.0277 130.107C77.2635 130.297 77.5589 130.392 77.9141 130.392ZM83.8938 127.665V131.5H82.3512V124.955H83.8256V126.067H83.9023C84.0529 125.7 84.293 125.409 84.6225 125.193C84.9549 124.977 85.3654 124.869 85.854 124.869C86.3058 124.869 86.6992 124.966 87.0344 125.159C87.3725 125.352 87.6339 125.632 87.8185 125.999C88.006 126.365 88.0984 126.81 88.0955 127.332V131.5H86.5529V127.571C86.5529 127.134 86.4393 126.791 86.212 126.544C85.9876 126.297 85.6765 126.173 85.2788 126.173C85.0089 126.173 84.7688 126.233 84.5586 126.352C84.3512 126.469 84.1879 126.638 84.0685 126.859C83.9521 127.081 83.8938 127.349 83.8938 127.665ZM90.614 131.594C90.3555 131.594 90.1339 131.503 89.9492 131.321C89.7646 131.139 89.6737 130.918 89.6765 130.656C89.6737 130.401 89.7646 130.182 89.9492 130C90.1339 129.818 90.3555 129.727 90.614 129.727C90.864 129.727 91.0813 129.818 91.266 130C91.4535 130.182 91.5487 130.401 91.5515 130.656C91.5487 130.83 91.5032 130.987 91.4151 131.129C91.3299 131.271 91.2163 131.385 91.0742 131.47C90.935 131.553 90.7816 131.594 90.614 131.594ZM95.0277 131.632C94.6129 131.632 94.2393 131.558 93.907 131.411C93.5774 131.26 93.3161 131.038 93.1229 130.746C92.9325 130.453 92.8374 130.092 92.8374 129.663C92.8374 129.294 92.9055 128.989 93.0419 128.747C93.1783 128.506 93.3643 128.312 93.6001 128.168C93.8359 128.023 94.1016 127.913 94.397 127.839C94.6953 127.763 95.0036 127.707 95.3217 127.673C95.7053 127.634 96.0163 127.598 96.255 127.567C96.4936 127.533 96.6669 127.482 96.7749 127.413C96.8857 127.342 96.9411 127.233 96.9411 127.085V127.06C96.9411 126.739 96.8459 126.49 96.6555 126.314C96.4652 126.138 96.1911 126.05 95.8331 126.05C95.4553 126.05 95.1555 126.132 94.9339 126.297C94.7152 126.462 94.5675 126.656 94.4908 126.881L93.0504 126.676C93.1641 126.278 93.3516 125.946 93.6129 125.679C93.8743 125.409 94.1939 125.207 94.5717 125.074C94.9496 124.938 95.3672 124.869 95.8246 124.869C96.1399 124.869 96.4538 124.906 96.7663 124.98C97.0788 125.054 97.3643 125.176 97.6229 125.347C97.8814 125.514 98.0888 125.743 98.245 126.033C98.4041 126.322 98.4837 126.685 98.4837 127.119V131.5H97.0007V130.601H96.9496C96.8558 130.783 96.7237 130.953 96.5533 131.112C96.3857 131.268 96.174 131.395 95.9183 131.491C95.6655 131.585 95.3686 131.632 95.0277 131.632ZM95.4283 130.499C95.7379 130.499 96.0064 130.437 96.2337 130.315C96.4609 130.19 96.6357 130.026 96.7578 129.821C96.8828 129.616 96.9453 129.393 96.9453 129.152V128.381C96.897 128.42 96.8146 128.457 96.6982 128.491C96.5845 128.526 96.4567 128.555 96.3146 128.581C96.1726 128.607 96.032 128.629 95.8928 128.649C95.7536 128.669 95.6328 128.686 95.5305 128.7C95.3004 128.732 95.0945 128.783 94.9126 128.854C94.7308 128.925 94.5874 129.024 94.4822 129.152C94.3771 129.277 94.3246 129.439 94.3246 129.638C94.3246 129.922 94.4283 130.136 94.6357 130.281C94.843 130.426 95.1072 130.499 95.4283 130.499ZM100.035 131.5V124.955H101.531V126.045H101.599C101.718 125.668 101.923 125.376 102.212 125.172C102.505 124.964 102.839 124.861 103.214 124.861C103.299 124.861 103.394 124.865 103.499 124.874C103.607 124.879 103.697 124.889 103.768 124.903V126.322C103.702 126.3 103.599 126.28 103.457 126.263C103.317 126.243 103.183 126.233 103.052 126.233C102.771 126.233 102.518 126.294 102.293 126.416C102.072 126.536 101.897 126.702 101.769 126.915C101.641 127.128 101.577 127.374 101.577 127.652V131.5H100.035Z" fill="#1273EA"/>
<path d="M167 42.75C166.862 42.75 166.75 42.8619 166.75 43C166.75 43.1381 166.862 43.25 167 43.25V42.75ZM167 43.25H209.38V42.75H167V43.25ZM230.75 64.6201V65.9959H231.25V64.6201H230.75ZM230.75 65.9959C230.75 77.3146 239.926 86.4901 251.244 86.4901V85.9901C240.202 85.9901 231.25 77.0384 231.25 65.9959H230.75ZM209.38 43.25C221.182 43.25 230.75 52.8177 230.75 64.6201H231.25C231.25 52.5416 221.458 42.75 209.38 42.75V43.25Z" fill="#1273EA"/>
<path d="M126.232 127.1C126.094 127.1 125.982 127.212 125.982 127.35C125.982 127.488 126.094 127.6 126.232 127.6V127.1ZM251.294 86.4902C251.432 86.4902 251.544 86.3783 251.544 86.2402C251.544 86.1021 251.432 85.9902 251.294 85.9902V86.4902ZM126.232 127.6H204.445V127.1H126.232V127.6ZM245.555 86.4902H251.294V85.9902H245.555V86.4902ZM225.25 106.795C225.25 95.5811 234.341 86.4902 245.555 86.4902V85.9902C234.065 85.9902 224.75 95.305 224.75 106.795H225.25ZM204.445 127.6C215.935 127.6 225.25 118.286 225.25 106.795H224.75C224.75 118.01 215.659 127.1 204.445 127.1V127.6Z" fill="#1273EA"/>
<path d="M109.546 85.7539C109.408 85.7539 109.296 85.8659 109.296 86.0039C109.296 86.142 109.408 86.2539 109.546 86.2539V85.7539ZM225.536 86.2539C225.674 86.2539 225.786 86.142 225.786 86.0039C225.786 85.8659 225.674 85.7539 225.536 85.7539V86.2539ZM109.546 86.2539H111.998V85.7539H109.546V86.2539ZM112.002 86.25H223.998V85.75H112.002V86.25ZM224.002 86.2539H225.536V85.7539H224.002V86.2539ZM223.75 86.002C223.75 86.1411 223.863 86.2539 224.002 86.2539V85.7539C224.139 85.7539 224.25 85.865 224.25 86.002H223.75ZM223.998 86.25C223.861 86.25 223.75 86.1385 223.75 86.002H224.25C224.25 85.8633 224.138 85.75 223.998 85.75V86.25ZM112.25 86.002C112.25 86.139 112.139 86.25 112.002 86.25V85.75C111.863 85.75 111.75 85.8628 111.75 86.002H112.25ZM111.998 86.2539C112.137 86.2539 112.25 86.1411 112.25 86.002H111.75C111.75 85.865 111.861 85.7539 111.998 85.7539V86.2539Z" fill="#1273EA"/>
<path d="M291.875 80.375V93.875C291.875 95.5319 290.532 96.875 288.875 96.875H273.125C271.468 96.875 270.125 95.5319 270.125 93.875V78.125" stroke="#1273EA" stroke-width="1.5" stroke-linecap="round" stroke-linejoin="round"/>
<path d="M287.75 87.5C287.75 87.9142 287.414 88.25 287 88.25C286.586 88.25 286.25 87.9142 286.25 87.5C286.25 87.0858 286.586 86.75 287 86.75C287.414 86.75 287.75 87.0858 287.75 87.5Z" stroke="#1273EA" stroke-linecap="round" stroke-linejoin="round"/>
<path d="M288.875 80.375H272.75C271.3 80.375 270.125 79.1997 270.125 77.75C270.125 76.3003 271.3 75.125 272.75 75.125H285.875C287.532 75.125 288.875 76.4681 288.875 78.125V80.375ZM288.875 80.375H291.875" stroke="#1273EA" stroke-width="1.5" stroke-linecap="round" stroke-linejoin="round"/>
</svg>
